<svg xmlns="http://www.w3.org/2000/svg" width="1536" height="1024" viewBox="0 0 1536 1024">
  <defs>
    <linearGradient id="bg" x1="0" y1="0" x2="1" y2="1"><stop stop-color="#071525"/><stop offset="1" stop-color="#0A1D31"/></linearGradient>
    <linearGradient id="card" x1="0" y1="0" x2="1" y2="1"><stop stop-color="#10243A"/><stop offset="1" stop-color="#0C1B2E"/></linearGradient>
    <style>
      .t{font-family:Segoe UI,Arial,sans-serif;fill:#F7FAFC}.muted{fill:#9FB0C5}.gold{fill:#F4B63D}.green{fill:#29D391}.blue{fill:#3D8BFF}.teal{fill:#23C7B7}.purple{fill:#A06BFF}.orange{fill:#FF9B4A}.panel{fill:url(#card);stroke:#233B55;stroke-width:1}.small{font-size:13px}.label{font-size:15px}.title{font-size:34px;font-weight:700}.kpi{font-size:30px;font-weight:700}.section{font-size:18px;font-weight:600}.nav{font-size:15px}.axis{stroke:#2A425E;stroke-width:1}.grid{stroke:#21374F;stroke-width:1}.pill{fill:#0B1A2B;stroke:#2D455F;stroke-width:1}
    </style>
  </defs>
  <rect width="1536" height="1024" fill="url(#bg)"/>
  <rect x="0" y="0" width="190" height="1024" fill="#081827"/>
  <text class="t" x="62" y="49" font-size="18" font-weight="700">AURORA</text><text class="muted" x="62" y="67" font-size="10" letter-spacing="3">INSIGHTS</text>
  <path d="M34 75 L59 23 L83 75 M47 51 L70 51" fill="none" stroke="#F4B63D" stroke-width="2"/>
  <g class="t nav"><text x="78" y="144">Overview</text><rect x="14" y="171" width="164" height="52" rx="8" fill="#27303A" stroke="#4B5664"/><text x="78" y="203">Financials</text><text x="78" y="264">Customers</text><text x="78" y="324">Products</text><text x="78" y="384">Operations</text><text x="78" y="444">Regions</text><line x1="24" y1="474" x2="168" y2="474" stroke="#27405B"/><text x="78" y="524">Reports</text><text x="78" y="584">Alerts</text><text x="78" y="644">Settings</text></g>
  <g stroke="#A9B8C9" stroke-width="2" fill="none"><path d="M36 132h18v18H36z"/><path d="M34 191l7-8 7 4 8-11"/><circle cx="47" cy="252" r="7"/><rect x="38" y="313" width="18" height="18"/><circle cx="47" cy="374" r="9"/><circle cx="47" cy="434" r="9"/></g>
  <text class="t title" x="216" y="60">Financial Performance</text><text class="gold" x="216" y="85" font-size="14">Performance at a glance</text>
  <g><rect class="pill" x="830" y="34" width="204" height="45" rx="8"/><text class="t small" x="866" y="61">1 Jan 2024 – 31 Dec 2024</text><rect class="pill" x="1048" y="34" width="142" height="45" rx="8"/><text class="t small" x="1075" y="61">Region  ·  All</text><rect class="pill" x="1205" y="34" width="145" height="45" rx="8"/><text class="t small" x="1230" y="61">Business Unit · All</text><text class="muted small" x="1387" y="52">Data refreshed</text><text class="muted small" x="1422" y="69">2h ago</text></g>

  <!-- KPI row -->
  <g transform="translate(210 110)">
    <g><rect class="panel" width="270" height="120" rx="10"/><text class="t label" x="18" y="28">Total Revenue</text><text class="t kpi" x="18" y="70">$128.7M</text><text class="green small" x="18" y="99">▲ 18.6%  vs PY</text><polyline points="150,95 165,84 179,89 193,72 205,91 220,77 235,81 251,60" fill="none" stroke="#3D8BFF" stroke-width="3"/></g>
    <g transform="translate(282 0)"><rect class="panel" width="270" height="120" rx="10"/><text class="t label" x="18" y="28">Gross Profit</text><text class="t kpi" x="18" y="70">$54.3M</text><text class="green small" x="18" y="99">▲ 17.2%  vs PY</text><polyline points="150,95 164,84 180,89 193,69 208,87 223,65 238,75 253,54" fill="none" stroke="#23C7B7" stroke-width="3"/></g>
    <g transform="translate(564 0)"><rect class="panel" width="270" height="120" rx="10"/><text class="t label" x="18" y="28">EBITDA</text><text class="t kpi" x="18" y="70">$27.8M</text><text class="green small" x="18" y="99">▲ 22.1%  vs PY</text><polyline points="150,95 165,83 180,89 195,65 208,87 223,66 238,72 252,52" fill="none" stroke="#A06BFF" stroke-width="3"/></g>
    <g transform="translate(846 0)"><rect class="panel" width="270" height="120" rx="10"/><text class="t label" x="18" y="28">Net Profit</text><text class="t kpi" x="18" y="70">$19.6M</text><text class="green small" x="18" y="99">▲ 24.4%  vs PY</text><polyline points="150,95 165,83 180,87 194,69 208,90 223,66 238,75 252,55" fill="none" stroke="#F4B63D" stroke-width="3"/></g>
    <g transform="translate(1128 0)"><rect class="panel" width="198" height="120" rx="10"/><text class="t label" x="18" y="28">Gross Margin</text><text class="t kpi" x="18" y="70">42.2%</text><text class="green small" x="18" y="99">▲ 1.6pp  vs PY</text><polyline points="112,95 124,82 138,88 151,70 165,89 181,63" fill="none" stroke="#FF8B3D" stroke-width="3"/></g>
  </g>

  <!-- middle row -->
  <g transform="translate(210 245)"><rect class="panel" width="485" height="280" rx="10"/><text class="t section" x="18" y="30">Revenue Over Time</text><text class="muted small" x="18" y="53">● Revenue     ● Revenue PY</text><line class="grid" x1="50" y1="90" x2="455" y2="90"/><line class="grid" x1="50" y1="135" x2="455" y2="135"/><line class="grid" x1="50" y1="180" x2="455" y2="180"/><line class="grid" x1="50" y1="225" x2="455" y2="225"/><polyline points="55,210 88,193 120,203 152,181 185,171 217,174 250,159 282,149 315,162 347,139 380,138 415,150 450,126" fill="none" stroke="#3D8BFF" stroke-width="3"/><polyline points="55,225 88,214 120,220 152,207 185,196 217,201 250,188 282,176 315,195 347,181 380,166 415,170 450,153" fill="none" stroke="#7188A5" stroke-width="2" stroke-dasharray="6 6"/><g class="muted small"><text x="55" y="255">Jan</text><text x="120" y="255">Mar</text><text x="185" y="255">May</text><text x="250" y="255">Jul</text><text x="315" y="255">Sep</text><text x="380" y="255">Nov</text></g></g>
  <g transform="translate(708 245)"><rect class="panel" width="365" height="280" rx="10"/><text class="t section" x="18" y="30">Profitability Overview</text><circle cx="128" cy="150" r="78" fill="none" stroke="#263B52" stroke-width="34"/><path d="M128 72 A78 78 0 0 1 200 179" fill="none" stroke="#3D8BFF" stroke-width="34"/><path d="M200 179 A78 78 0 0 1 78 209" fill="none" stroke="#23C7B7" stroke-width="34"/><path d="M78 209 A78 78 0 0 1 58 111" fill="none" stroke="#A06BFF" stroke-width="34"/><path d="M58 111 A78 78 0 0 1 128 72" fill="none" stroke="#FF9B4A" stroke-width="34"/><text class="t" x="92" y="150" font-size="24" font-weight="700">$54.3M</text><text class="muted small" x="96" y="170">Gross Profit</text><g class="t small"><text x="240" y="95">● Product Sales  $22.8M</text><text x="240" y="128">● Services  $15.1M</text><text x="240" y="161">● Subscriptions  $9.9M</text><text x="240" y="194">● Other Income  $6.5M</text></g></g>
  <g transform="translate(1086 245)"><rect class="panel" width="430" height="280" rx="10"/><text class="t section" x="18" y="30">Expenses by Category</text><g class="t small"><text x="18" y="85">Cost of Goods Sold</text><rect x="145" y="69" width="240" height="28" rx="4" fill="#3D8BFF"/><text x="392" y="88">$34.2M</text><text x="18" y="130">Sales &amp; Marketing</text><rect x="145" y="114" width="170" height="28" rx="4" fill="#23C7B7"/><text x="322" y="133">$18.6M</text><text x="18" y="175">R&amp;D</text><rect x="145" y="159" width="120" height="28" rx="4" fill="#A06BFF"/><text x="272" y="178">$12.7M</text><text x="18" y="220">General &amp; Admin</text><rect x="145" y="204" width="88" height="28" rx="4" fill="#E5B95A"/><text x="240" y="223">$8.9M</text><text x="18" y="260">Other Expenses</text><rect x="145" y="244" width="47" height="24" rx="4" fill="#FF8B3D"/><text x="199" y="261">$3.4M</text></g></g>

  <!-- bottom row -->
  <g transform="translate(210 540)"><rect class="panel" width="375" height="260" rx="10"/><text class="t section" x="18" y="30">Key Financial Ratios</text><g class="muted small"><text x="18" y="60">Metric</text><text x="155" y="60">Current</text><text x="235" y="60">vs PY</text><text x="300" y="60">Trend</text></g><g class="t small"><text x="18" y="92">Gross Margin</text><text x="155" y="92">42.2%</text><text class="green" x="235" y="92">▲ 1.6pp</text><text x="18" y="124">Operating Margin</text><text x="155" y="124">15.3%</text><text class="green" x="235" y="124">▲ 1.9pp</text><text x="18" y="156">Net Margin</text><text x="155" y="156">15.2%</text><text class="green" x="235" y="156">▲ 2.1pp</text><text x="18" y="188">ROE</text><text x="155" y="188">21.8%</text><text class="green" x="235" y="188">▲ 2.7pp</text><text x="18" y="220">ROIC</text><text x="155" y="220">19.6%</text><text class="green" x="235" y="220">▲ 2.3pp</text></g></g>
  <g transform="translate(598 540)"><rect class="panel" width="375" height="260" rx="10"/><text class="t section" x="18" y="30">Cash Flow Summary</text><line class="grid" x1="55" y1="210" x2="340" y2="210"/><rect x="75" y="130" width="42" height="80" fill="#3D8BFF"/><rect x="135" y="82" width="42" height="128" fill="#23C7B7"/><rect x="195" y="82" width="42" height="66" fill="#F05762"/><rect x="255" y="148" width="42" height="45" fill="#F05762"/><rect x="315" y="125" width="42" height="85" fill="#3D8BFF"/><g class="muted small"><text x="61" y="235">Opening</text><text x="128" y="235">Operating</text><text x="190" y="235">Investing</text><text x="252" y="235">Financing</text><text x="312" y="235">Closing</text></g></g>
  <g transform="translate(986 540)"><rect class="panel" width="530" height="260" rx="10"/><text class="t section" x="18" y="30">Revenue by Region</text><circle cx="115" cy="125" r="18" fill="#3D8BFF"/><circle cx="210" cy="144" r="14" fill="#23C7B7"/><circle cx="292" cy="162" r="18" fill="#A06BFF"/><circle cx="153" cy="181" r="12" fill="#E5B95A"/><g class="t small"><text x="330" y="70">Region</text><text x="450" y="70">Revenue</text><text x="330" y="100">North America</text><text x="445" y="100">$53.6M</text><text class="green" x="492" y="100">▲19.2%</text><text x="330" y="130">Europe</text><text x="445" y="130">$32.1M</text><text class="green" x="492" y="130">▲16.7%</text><text x="330" y="160">Asia Pacific</text><text x="445" y="160">$23.3M</text><text class="green" x="492" y="160">▲21.8%</text><text x="330" y="190">Latin America</text><text x="445" y="190">$12.8M</text><text class="green" x="492" y="190">▲17.6%</text><text x="330" y="220">Middle East &amp; Africa</text><text x="445" y="220">$6.9M</text></g></g>

  <rect x="0" y="820" width="1536" height="204" fill="#F8FAFC"/><line x1="388" y1="842" x2="388" y2="996" stroke="#CBD5E1"/><text x="30" y="858" font-family="Segoe UI,Arial" font-size="18" font-weight="700" fill="#0F172A">DESIGN GOALS</text><g font-family="Segoe UI,Arial" font-size="14" fill="#334155"><text x="58" y="892">✓ Executive-grade, premium aesthetic</text><text x="58" y="922">✓ Immediate clarity and visual hierarchy</text><text x="58" y="952">✓ Data-rich yet uncluttered</text><text x="58" y="982">✓ Fully interactive filters &amp; cross-highlighting</text></g><text x="430" y="858" font-family="Segoe UI,Arial" font-size="18" font-weight="700" fill="#0F172A">INSTRUCTIONS FOR KIRO</text><g font-family="Segoe UI,Arial" font-size="14" fill="#334155"><text x="430" y="888">Emulate this Financial Performance dashboard using the reusable premium custom visual templates.</text><text x="430" y="920">• Generate realistic FY2024 finance data with monthly granularity and coherent relationships.</text><text x="430" y="948">• Reuse KPI, line/area, donut, horizontal bar, table, waterfall and region templates.</text><text x="430" y="976">• Target ≥7.5/10 visual quality, ≥8 executive readiness, ≥80/100 parity with this reference.</text></g>
</svg>